<svg height="172.355084" viewBox="0 0 422.80414 125.60398" width="580.197564" xmlns="http://www.w3.org/2000/svg"><g stroke-width=".264583" transform="translate(152.17321 88.613613)"><path d="m-97.933628 36.600775c-3.111992-.4586-4.989192-.86027-8.069792-1.72673-5.67088-1.59502-5.79415-1.5486 4.16719-1.56939l8.929685-.0186v1.02526c0 .56389.07441 1.39733.165365 1.85208l.165364.82682-1.554427-.029c-.854935-.0159-2.566458-.17812-3.803385-.36041z" fill="#2957a4"/><path d="m-85.233628 35.138095v-1.85208l8.929688.0261 8.929687.0261-1.984375.65872c-4.96344 1.64763-11.512542 2.97447-14.750521 2.98843l-1.124479.005z" fill="#2957a4"/><path d="m-89.426467 35.699426c-.02228-.77748-.156697-4.360692-.298725-6.057072-.142026-1.69638-.442148-7.071969-.666935-9.982389-.22479-2.91041-.523746-6.77994-.664345-8.59895-.1406-1.8190102-.439841-5.7480802-.66498-8.7312502-.225139-2.98318004-.579054-7.56709-.786474-10.18646-.207423-2.6193798-.506823-6.5484398-.665337-8.7312498-.158515-2.18282-.468858-6.0941-.689653-8.69176-.220792-2.59765-.361529-4.76291-.312748-4.81169.04878-.0488.905584.4369 1.904003 1.07929.998418.64239 1.900576 1.11529 2.004795 1.05088.104217-.0644.261568-4.13974.349666-9.05629.371901-20.75502.727459-37.004517.899006-41.086058.171935-4.090761.195975-10.154025.381789-8.294588.109066 1.091407.32331 9.683651.476099 11.866463.152789 2.182813.388975 5.337973.524857 7.011463s.379822 4.9477.542094 7.27604c.281278 4.03595.762352 10.40125 1.329769 17.59479.143481 1.81901.446993 5.86713.674468 8.99583.227476 3.1287.583224 7.70514.790551 10.16986.207325 2.46473.347525 4.51075.311553 4.54672-.03597.036-.821439-.52211-1.745483-1.24017-.924044-.71807-1.770248-1.30557-1.88045-1.30557-.400007 0-.531267 1.76065-.539982 7.24296-.0049 3.07413-.120515 8.8040098-.256956 12.7330798-.13644 3.92906-.325615 11.43-.420388 16.6687502-.176858 9.77613-.524013 23.057051-.596194 20.537371z" fill="#ed3237"/><path d="m34.202754 30.935115c-6.361547-1.82141-10.526358-7.03882-12.317513-15.43058-.449268-2.10488-.582732-3.62546-.587404-6.6924802-.0126-8.26785004 2.204468-14.50242 6.631014-18.64697 6.852198-6.4156798 16.983427-5.4127798 22.430343 2.22039 4.929108 6.90751996 6.025267 18.6547402 2.593422 27.7929302-2.08652 5.5559-6.182945 9.53049-11.198238 10.86517-1.939396.51612-5.551395.46424-7.551624-.10846z" fill="#2957a4"/><path d="m41.42073 19.907815c2.824652-2.22941 4.208899-9.22438 3.134866-15.8413102-.965946-5.95101-4.106836-8.6091-8.431581-7.13551-3.068132 1.04542-4.802547 5.40695-4.777253 12.01335.01984 5.1797502 1.091203 8.7214902 3.199643 10.5774202 1.359064 1.19629 1.706462 1.30077 4.0962 1.23194 1.526707-.044 1.909956-.16067 2.778125-.84589z" fill="#fff"/><path d="m171.65346 31.051725c-1.84386-.50864-4.31589-1.92599-5.73686-3.28926-2.69938-2.58975-4.56724-6.07124-5.79414-10.79961-.68241-2.63005-.74202-3.25132-.74393-7.7539302-.003-5.26852.27745-7.15373 1.64857-11.1125 2.437-7.03618 7.63611-11.5734798 13.85946-12.0952198 5.8321-.48895 11.4241 3.08858 14.1564 9.0566898.8822 1.92699 1.68383 4.79023996 1.68383 6.01425v.99303h-4.7625c-4.35835 0-4.76271-.0393-4.76509-.46302-.005-.85721004-1.23777-3.12464-2.0883-3.84031-1.54448-1.2996-4.20146-1.52256-5.84661-.49062-2.59964 1.63064-3.97732 5.67734-3.95951 11.63025.0206 6.8780902 1.61059 10.6600102 4.96186 11.8018902 3.21323 1.09487 6.50856-.27426 7.61156-3.16241.67683-1.7722.48003-1.98203-1.85873-1.98203h-1.99268v-4.49791-4.4979202h6.74688 6.74687v11.9062502 11.90625h-3.14745-3.14746l-.18738-2.11667c-.10305-1.16416-.29403-2.11666-.42442-2.11666-.13036 0-.23704.10867-.23704.24149 0 .43917-3.10599 3.40521-4.0087 3.82807-2.70682 1.26795-6.00916 1.58623-8.71463.8399z" fill="#2957a4"/><path d="m-119.23259 29.543345c-2.95688-1.54803-2.95684-1.549.061-1.549h2.69226l.27555-.99219c.15155-.5457.27621-1.14101.27702-1.32292.001-.25929 2.39361-.33072 11.07628-.33072h11.074813l.169981 1.62631c.09349.89447.169985 2.02556.169985 2.51354v.88723l-12.104689-.00053-12.10469-.00053-1.5875-.83111z" fill="#2957a4"/><path d="m-85.055963 30.184425c-.07004-.11332-.06227-1.24899.01725-2.5237l.144595-2.31766 11.636079.0689 11.636076.0689.464238 1.19062.464238 1.19063 2.080495.13229 2.080493.13229-1.716712 1.05833-1.716712 1.05834-12.481351.0736c-6.864742.0405-12.538655-.0191-12.608693-.13246z" fill="#2957a4"/><path d="m-8.2398763 8.6592748v-21.7163298l9.4588547.11046c9.8514846.11505 10.7613366.21144 13.0182006 1.37904 1.205502.62367 3.151479 2.6159098 4.04073 4.1367998.392229.67083 1.042866 2.15911 1.445863 3.30729.687621 1.9591.732452 2.35632.728358 6.45323-.0043 4.27026-.02296 4.41475-.856501 6.61458-1.401765 3.6995202-3.466237 5.9441302-6.594144 7.1695202-1.323732.51858-2.189531.61963-6.4246946.74981l-4.894792.15046-.07069 6.68073-.07069 6.68073h-4.8902459-4.8902488z" fill="#2957a4"/><path d="m8.5396364 6.6176548c1.8723796-.64951 2.3815276-1.46519 2.4812066-3.97503.10291-2.59119004-.376656-3.63425004-2.0628026-4.4866-1.065985-.53886-1.509149-.59426-4.233333-.52917l-3.042709.0727-.07574 4.10104c-.04166 2.25557-.0096 4.36893.07119 4.69635.140673.56999.262083.59482 2.853862.58373 1.840367-.008 3.123551-.1561 4.008326-.46302z" fill="#fff"/><path d="m61.345541 29.949385c0-.23442-.962623-4.96715-2.139162-10.51719-1.176541-5.55004-2.361162-11.1625402-2.632495-12.4722302-.271333-1.30968-.800897-3.81-1.176809-5.55625-.375912-1.74625004-.91064-4.30609-1.188286-5.68854-.546267-2.71996-1.436857-6.8342298-1.732499-8.0036398l-.183949-.72761h4.902454 4.902451l.151196.72761c.08316.40018.573911 3.4660398 1.09056 6.8130198s1.179007 7.63323 1.471903 9.525c.292899 1.89177.710475 4.60602.92795 6.0316602.217474 1.42564.492508 2.85439.611193 3.175.203186.54889.224951.53659.372845-.21083.08638-.43656.641435-4.0084402 1.233448-7.9375002.592013-3.92906 1.239086-8.15578 1.437936-9.39271.198851-1.23692.579626-3.70747.846167-5.4901l.484619-3.2411498h4.288242c3.855847 0 4.301956.0467 4.424236.46302.07479.25466.559607 3.3205198 1.077362 6.8130198.517752 3.4925 1.115324 7.42157 1.327938 8.73125.212612 1.30969.637966 4.10486.945232 6.21149.307266 2.1066402.654487 4.0014702.771605 4.2107502.136136.24326.322162-.3271.515744-1.58128.166542-1.07899.414975-2.6166302.55208-3.4170002.137101-.80036.615399-3.83646 1.062886-6.74687.447485-2.91042 1.106083-7.08751 1.463548-9.28244.357466-2.19492.649939-4.3082698.649939-4.6963498v-.70559h4.985406 4.9854l-.59205 2.84427c-.32563 1.5643498-1.61864 7.7258398-2.87336 13.6921898-2.12215 10.0911202-2.69776 12.7853102-3.34934 15.6770002-.139415.6187-.486135 2.28558-.770493 3.70417-.784326 3.9128-1.332712 6.49701-1.487784 7.01102-.126461.41917-.601528.46302-5.016651.46302-4.009009 0-4.876962-.0661-4.876962-.37124 0-.20418-.468267-3.62723-1.040595-7.60677-.572329-3.97954-1.366658-9.61678-1.765179-12.5272002-.398523-2.91042-.813773-5.39533-.922782-5.52202-.109008-.1267-.274841.34955-.368517 1.05833-.09368.70878-.334372 2.47932-.534876 3.93452-.200507 1.4552102-.492165 3.5983402-.648131 4.7625002-.155964 1.16417-.698627 5.18974-1.205913 8.94571-.507288 3.75597-.92234 6.94089-.92234 7.0776 0 .14632-2.068018.24857-5.027084.24857-4.445904 0-5.027083-.0493-5.027083-.42621z" fill="#2957a4"/><path d="m99.710121 8.6797648v-21.6958398h13.758339 13.75833v5.0270898 5.02708h-8.99583-8.99584v3.17499996 3.17500004h8.0698 8.06979v4.63021 4.6302102h-8.06979-8.0698v3.57187 3.57188h8.99584 8.99583v5.29166 5.29167h-13.75833-13.758339z" fill="#2957a4"/><path d="m129.07887 8.6797648v-21.6958398l9.45886.005c10.0271.005 11.6953.15872 14.12997 1.30314 3.61836 1.70084 6.04451 6.2134198 6.04451 11.24268976 0 4.05189004-1.25606 7.47424004-3.52057 9.59243004l-1.29572 1.2120002 1.05542.95643c2.60033 2.35636 3.43474 5.15506 4.02167 13.4889.16774 2.38172.41285 4.61415.5447 4.96094l.23973.63054h-4.85994c-3.91938 0-4.88741-.0716-5.00192-.37007-.0781-.20353-.27443-1.84064-.43627-3.63802-.63474-7.04913-.94671-8.44665-2.19073-9.81381-1.14355-1.25675-2.11299-1.52394-5.52918-1.52394h-2.87094v7.67291 7.67292h-4.89479-4.8948z" fill="#2957a4"/><path d="m147.07467 5.5513248c1.24227-.65029 2.11254-2.37492 2.11254-4.18644 0-1.70247004-.28623-2.4926-1.21481-3.35364-1.00372-.93071-2.50349-1.23773-6.0461-1.23773h-3.05784v4.6302 4.63021h3.64215c3.01164 0 3.80174-.0835 4.56406-.4826z" fill="#fff"/><path d="m193.37263 8.6631148v-21.7124798l10.38489.10123c11.21886.10936 11.5461.14759 14.10669 1.6482 3.41677 2.0023598 5.67515 7.0504198 5.29381 11.83303976-.30025 3.76557004-1.92106 7.55151004-3.84038 8.97052004-.77766.5749502-1.08595 1.2928002-.55523 1.2928002.71081 0 2.37096 2.20907 3.02496 4.02515.90493 2.51289 1.1254 3.79087 1.47627 8.55654.16015 2.17512.40579 4.52618.54591 5.22456.1401.69839.25474 1.383.25474 1.52136 0 .1499-1.96448.25156-4.86098.25156h-4.86097l-.17148-1.07231c-.0943-.58977-.29684-2.6436-.45006-4.56406-.49956-6.26087-1.17758-8.14794-3.29993-9.18422-.88596-.43259-1.62108-.52524-4.16719-.52524h-3.09147v7.67291 7.67292h-4.89479-4.89479z" fill="#2957a4"/><path d="m211.61255 5.5504648c1.44849-.77683 1.91201-1.91468 1.81697-4.46024-.0736-1.97231004-.14898-2.23669-.84433-2.96233-.98859-1.0317-2.51183-1.35438-6.39329-1.35438h-3.02969v4.6302 4.63021h3.77444c3.15021 0 3.92353-.0799 4.6759-.48346z" fill="#fff"/><path d="m225.65179 8.6797648v-21.6958398h4.89479 4.8948v21.6958398 21.6958302h-4.8948-4.89479z" fill="#2957a4"/><path d="m237.82263 8.7026648v-21.7187398h8.34829c6.74981 0 8.71291.0824 10.2526.43009 6.43541 1.45342 10.46038 6.1408698 12.38949 14.4286898.76692 3.29484.82362 10.3070802.11094 13.7162202-1.04561 5.00146-2.75508 8.43511-5.47913 11.00525-1.63666 1.54419-2.47292 2.05875-4.72011 2.90432l-1.98438.74668-9.45885.10312-9.45885.10311z" fill="#2957a4"/><path d="m255.1898 19.128755c2.39207-1.19202 3.58357-3.48414 4.09405-7.87582.41445-3.5652502.0298-6.7094802-1.11426-9.1085402-1.5825-3.31848-3.36243-4.36339-7.71311-4.52804l-2.84427-.10764v11.14178 11.1417602h3.12306c2.80345 0 3.2593-.0679 4.45453-.6635z" fill="#fff"/><path d="m-131.07269 21.227965c-.69123-.66013-1.25677-1.25322-1.25677-1.31797 0-.0648 4.04083-.11774 8.97962-.11774h8.97962l.17855-1.19063.17854-1.19062h9.73697 9.736967l.175662 2.05052c.09661 1.12778.196069 2.22911.221012 2.44739.03985.34877-2.119284.4043-17.814031.45809l-17.85937.0612z" fill="#2957a4"/><path d="m-84.704461 19.924545v-2.51354h10.554129 10.554131l.351549 1.19062.351549 1.19063 8.607344.0101 8.60734.0101-1.407517 1.31283-1.407517 1.31284h-18.105504-18.105504z" fill="#2957a4"/><path d="m-138.51136 13.376105-.93411-1.12448 13.38957-.0686c8.78963-.045 13.50359-.16323 13.72147-.34404.18254-.1515.40912-.837.50352-1.52335l.17163-1.2479002 7.32585.0781c4.02921.0429 7.706124.13839 8.170909.21208.917869.14554.897332.0837 1.246717 3.7536102l.132244 1.38906h-21.39684-21.39684z" fill="#2957a4"/><path d="m-84.43991 11.788605-.000031-2.7119802 8.400552.0706c4.620305.0388 8.894342.13356 9.497865.21057 1.020482.13022 1.110131.20864 1.280446 1.1200702.100726.53903.306122 1.12888.45644 1.31078.211773.25627 3.158723.33073 13.089639.33073h12.816335l-.855041 1.19062-.855043 1.19063h-21.915565-21.915565z" fill="#2957a4"/><path d="m-143.96575 5.2507048c-.294-.57628-.53455-1.1112-.53455-1.18869 0-.0775 7.69939-.17154 17.10975-.20898l17.10975-.0681.3748-1.12448.3748-1.12447h6.71284 6.712836l.130379.85989c.07171.47294.197207 1.54451.278884 2.38125l.148505 1.52136h-23.941724-23.94173z" fill="#2957a4"/><path d="m-82.918524 6.1012948-1.256771-.0964v-2.23446-2.23446h8.411793 8.411789l.318445 1.19062.318442 1.19063h16.534035 16.534037l-.579718 1.19323-.579715 1.19323-23.427783-.053c-12.88528-.0292-23.99333-.0964-24.684554-.1494z" fill="#2957a4"/><path d="m-147.77886-2.7026852c-.23408-.58503-.4256-1.12081-.4256-1.19063 0-.0698 8.97976-.12693 19.95502-.12693h19.95502l.17306-.8599c.39181-1.94674-.13209-1.78594 5.81891-1.78594h5.38511l.137211.72761c.07547.40018.213465 1.53127.306665 2.51354l.169455 1.78594h-25.524621-25.52463z" fill="#2957a4"/><path d="m-83.910711-4.1568652v-2.51786l7.077604.0705 7.077604.0705.28693 1.19063.286933 1.19062 19.606329.0678 19.606329.0678-.405111 1.18893-.405109 1.18894h-26.565755-26.565754z" fill="#2957a4"/><path d="m-150.29525-10.409735c-.15975-.45827-.29046-.99406-.29046-1.19062 0-.29728 3.71505-.35739 22.08766-.35739h22.08767l.13734-.66146c.0755-.3638.19913-.95912.27466-1.32292l.13733-.66146h4.08039c2.244212 0 4.13257.0893 4.196351.19844.06378.10914.200559 1.24023.30395 2.51354l.187984 2.3151098h-26.456205-26.4562z" fill="#2957a4"/><path d="m-83.646128-11.566825v-1.99033l2.085234 1.46116c1.146879.80364 2.228602 1.46116 2.403825 1.46116.236717 0 .270618-.51193.131918-1.99205l-.186669-1.99204 3.669824.0738 3.669827.0738.286935 1.19063.286933 1.19062 21.889265.0677c20.677174.0639 21.881672.0932 21.752192.52917-.07539.25382-.215164.78891-.31061 1.18909l-.17354.7276098h-27.752567-27.752567z" fill="#2957a4"/><path d="m-151.74187-18.109315c-.0877-.32742-.16116-.86256-.16315-1.1892l-.004-.59389 23.59171-.0676 23.59171-.0676.28694-1.19062.28693-1.19063 2.75517-.0759c1.515335-.0417 2.844039.0178 2.952666.1323.10863.11449.281874 1.24996.384985 2.52327l.187478 2.31511h-26.855639-26.85565z" fill="#2957a4"/><path d="m-79.677378-18.401225c0-.48798-.07649-1.61907-.169984-2.51355l-.169982-1.62631h2.926845 2.926845l.439401 1.32292.439402 1.32292h23.394363 23.394361v1.19062 1.19063h-26.590625-26.590626z" fill="#2957a4"/><path d="m186.36601-24.076425c-1.3834-1.70218-2.516-3.17793-2.51685-3.27945 0-.10152.98073-.71537 2.18128-1.36411 1.20054-.64874 5.69515-3.08134 9.98802-5.40578l7.80521-4.22625v-11.47526-11.47527l-4.69636-.0722c-2.58299-.0397-4.69635-.002-4.69635.0839s.60417.84251 1.34263 1.68143c2.82069 3.20447 3.53533 5.27608 3.52327 10.2132-.007 2.73556-.12933 3.8704-.59915 5.54433-1.92355 6.85363-6.52341 10.93689-14.0353 12.45898-2.80855.56909-10.17746.4266-12.58874-.24342-3.6153-1.00458-6.57699-3.02009-8.20098-5.58099-1.29463-2.04155-1.72124-3.61538-1.71831-6.33905.003-1.97693.11494-2.64156.63958-3.7684 1.13496-2.43761 3.34785-4.09606 7.03075-5.26921 1.17858-.37543 2.7251-.48463 8.13594-.57447 3.6744-.061 6.67684-.0111 6.6721.11086-.005.12198-.22085 1.65054-.48027 3.39679l-.47167 3.175-3.5546.006c-5.04151.009-6.18281.63407-6.14617 3.36699.0319 2.38033 1.36258 3.37366 4.5194 3.37366 5.0142 0 7.52195-2.42439 8.2382-7.96433.73531-5.68742-1.08976-10.42428-4.97766-12.91914l-1.26597-.81238h-11.15547-11.1555v17.33021 17.33021h-6.21771-6.21771v-17.33021-17.33021h-3.57187c-1.96453 0-3.57188.10301-3.57188.2289 0 .1259.24231.53697.53848.91348 1.3071 1.66171 1.69392 3.06587 1.68969 6.13366-.004 2.69865-.0641 3.03946-.82929 4.68393-2.52148 5.41879-9.53812 8.84835-16.90483 8.26266l-2.14451-.1705-.16764 1.04838c-.3538 2.21245 1.20497 5.15189 3.2248 6.08114 1.5322.70492 8.27079.62335 12.14427-.14702 1.63623-.32541 3.1573-.66162 3.38016-.74714.35544-.1364.39626.37391.33234 4.1561l-.0728 4.31158-.79375.21467c-4.34049 1.17387-13.88631 1.30013-18.09771.23938-5.88066-1.48121-8.6659-4.01959-10.7161-9.76633-.56458-1.58255-1.48098-5.72348-1.48098-6.69213 0-.12646-1.01203-.22992-2.24896-.22992h-2.24896v-3.43959-3.43958h8.69514c9.14926 0 10.63804-.1355 12.90825-1.17483 2.00245-.91675 2.53722-1.86324 2.40189-4.25106-.11907-2.10087-.86434-3.58421-2.36559-4.70825-2.08492-1.56102-1.58975-1.50753-13.95362-1.50753h-11.39028v17.33021 17.33021h-6.077729-6.07774l-.07382-3.50573c-.04551-2.16089-.175323-3.48389-.33841-3.4488-.14552.0313-1.633802.53053-3.307291 1.10937-3.998648 1.38307-6.369169 1.87095-10.012564 2.06068-5.886744.30656-10.764189-1.36136-14.205051-4.85764-2.685682-2.72893-3.864004-6.32227-3.332025-10.16112.821751-5.92986 5.666841-9.99779 13.708759-11.50984 5.110877-.96096 12.786228-.0192 15.969086 1.95936l1.311378.8152v-3.56095-3.56095h-17.727088-17.727084v17.33021 17.33021h-6.083501-6.083501l-.06806-17.26406-.06806-17.26407-4.167188-.0729-4.167187-.0729v17.33693 17.33693h-6.217709-6.217708v-5.19078-5.19078l-.929889.70926c-1.347954 1.02814-3.524314 1.96182-5.596115 2.40079-2.500461.52979-7.9198866.5089-10.1258416-.039-4.7508693-1.18008-9.0527668-4.73768-11.1926507-9.25616l-.8627957-1.82184-.080259-8.13594-.080261-8.13594h-2.234846-2.234845v-2.90998-2.90999l80.220537-.0666 80.220549-.0666.0685-2.38125c.13948-4.845357 2.03324-8.17016 6.01273-10.55636 2.578-1.545819 5.4015-2.460783 10.74849-3.483073 4.77287-.912528 31.16628-.696922 36.46122.297849 6.7559 1.269247 11.5511 4.081851 13.9563 8.186006.98777 1.685522 1.7054 4.382708 1.7054 6.409748v1.65937h27.51666 27.51667v2.9047 2.9047l-5.09323.0719-5.09323.0718-.0723 4.69636-.0722 4.69635h-11.5153-11.5153l-.64945.64944c-.9339.9339-.89839 2.46114.0782 3.36332.40018.36969.96573.77494 1.25677.90054s4.27963.2989 8.86354.38513l8.33437.15676 1.92532.81828c6.88962 2.92817 9.28008 9.20012 6.02925 15.81924-2.2932 4.6693-7.33978 7.53332-14.17227 8.04302-3.34524.24955-7.54214-.0745-11.90303-.91906-7.90844-1.53159-13.41834-3.55117-16.15802-5.92251l-1.17541-1.01738.74922-2.2087c.41206-1.21479 1.10823-3.24088 1.54704-4.50244l.79785-2.29373 1.15634.88265c2.81133 2.14593 10.24681 5.18123 15.06413 6.14945 2.71719.54612 8.01995.59544 9.75887.0907 1.50833-.43776 3.20786-1.92469 3.49146-3.05471.29729-1.18449-.54562-2.49269-2.12934-3.30467-1.29383-.66338-1.4325-.67621-8.86354-.82052-8.20666-.15937-8.40668-.1924-11.90641-1.96585-1.9668-.99664-4.34969-3.33631-5.23308-5.13816-1.95377-3.985.10247-8.35762 5.041-10.71972 2.98582-1.42813 5.3095-1.74113 12.92619-1.74113h6.59855l-.0793-1.52135-.0793-1.52136h-16.13965-16.13959v17.26414 17.26414l-6.15156-.00007-6.15156-.00008v-1.71979c0-.94589-.0986-1.71979-.21923-1.71979-.12058 0-.74565.34626-1.38907.76946-.64338.42321-3.93655 2.50051-7.31808 4.61622l-6.14828 3.84675z" fill="#00a859"/><path d="m79.487052-38.704675c2.18829-.40227 5.317406-1.65256 7.23056-2.88909 1.462865-.94549 1.615429-1.13019 1.615429-1.95561 0-1.99396-3.279351-4.29445-7.425467-5.20903-3.281823-.72393-6.983204-.62305-8.632643.23528-3.437705 1.78889-4.031041 6.66538-1.079148 8.86929 1.505791 1.12424 5.100386 1.53574 8.291269.94916z" fill="#fff"/><path d="m14.721999-44.840945c2.261939-.79561 3.709739-2.23848 4.642641-4.62684.360923-.92401.441317-2.11758.441317-6.55205v-5.42222l-8.665104.0698-8.6651046.0698-.07526 3.57188c-.04139 1.96453.05022 4.38354.203591 5.37557.547241 3.53968 2.827026 6.7601 5.491557 7.75734 1.240814.4644 5.0076836.32614 6.6263626-.2432z" fill="#fff"/><path d="m204.48513-68.036385c0-1.57056-.56677-3.37763-1.36184-4.34222-1.57223-1.907378-5.28238-3.154496-10.7265-3.605569-4.10509-.340128-21.6634-.340499-25.24839-.000529-6.2624.593864-9.01103 2.56296-9.04791 6.481828-.008.88579.0734 1.75377.18161 1.92887.15089.24413 5.55966.31835 23.19989.31835h23.00314z" fill="#fff"/><g fill="#2957a4"><path d="m-152.17321-26.509825v-1.05833l24.67239-.004c13.56982-.002 24.80665-.0915 24.97073-.19844.16408-.10691.3829-.7004.48627-1.31886l.18796-1.12448h1.43195c1.30457 0 1.433158.0529 1.445535.59531.0075.32742.102949 1.39899.212169 2.38125l.198586 1.78594h-26.8028-26.80279z"/><path d="m-80.293256-25.649925c-.06487-.10914-.203759-1.18534-.308647-2.39156l-.190709-2.19312 2.466533.0765 2.466533.0764.245914 1.05833c.135253.58208.377569 1.14581.53848 1.25272.160912.10691 11.207092.19621 24.547063.19844l24.2545.004.172919.78729c.0951.43301.09754.90926.0054 1.05833-.196908.31861-54.008939.39069-54.197994.0726z"/><path d="m-151.64043-33.984305c.002-.32742.0754-.8632.16315-1.19062l.15953-.59531h22.8556c19.72367 0 22.85561-.0523 22.85561-.38126 0-.2097-.11352-.45142-.25227-.53717-.13874-.0857-.50404-.5095-.81176-.94166l-.55951-.78575h6.7649 6.764885l-.0186 1.25677c-.03455 2.33517-.08108 2.34464-2.891819.58852-1.382448-.86375-2.654885-1.57275-2.827637-1.57557-.200212-.003-.275873.30664-.208676.85476.05798.47294.160953 1.54451.228832 2.38125l.123413 1.52136h-26.174638-26.17463z"/><path d="m-81.00601-33.544355c-.0031-.13283-.162374-1.28331-.353848-2.55661l-.348133-2.31511h5.41333c6.024216 0 5.593651-.18241 4.05942 1.71979l-.640205.79375 22.980399.1323 22.980399.13229.189006.92425c.103952.50833.15331.95994.10968 1.00357-.214694.21469-54.384983.37979-54.390048.16577z"/><path d="m-149.96544-42.383635.2828-1.05952h20.65303 20.65303l.46985-1.32292.46986-1.32291h7.01088 7.010882l-.07645 2.3151-.07645 2.3151-28.340122.0673-28.34012.0673z"/><path d="m-82.060509-41.921805c-.0011-.32742-.07778-1.39898-.17055-2.38125l-.168672-1.78593h5.466498 5.466501l.373279.85989c.205303.47294.437764 1.06826.51658 1.32292.134896.43585 1.369275.46302 21.038077.46302 11.492125 0 20.947328.0893 21.011566.19844.06424.10914.199784.58539.30122 1.05833l.184428.8599h-27.008522-27.008524l-.0019-.59532z"/><path d="m-147.217-50.322325.41572-1.05833h20.67739 20.67739l.47572-1.32292.47571-1.32291h5.828882 5.828879l-.163996.99218c-.0902.54571-.165309 1.61727-.16691 2.38125l-.0029 1.38907h-27.230805-27.2308z"/><path d="m-82.946977-50.890305c-.09349-.89447-.169984-1.90931-.169984-2.2552v-.6289l4.542266.0724 4.542266.0724.374573 1.12448.374576 1.12448h20.874657 20.874657l.539922 1.05833.539922 1.05834h-26.161437-26.161436z"/><path d="m-83.740727-58.563215c-.09349-.89447-.169984-1.96604-.169984-2.38125v-.75494h3.517199 3.517196l.40998 1.12448.409977 1.12448 20.141491.0678 20.141491.0678.669875.98581c.36843.5422.669875 1.07723.669875 1.18897s-11.05585.20317-24.568558.20317h-24.56856z"/><path d="m-143.70655-57.318655c0-.0644.24989-.54069.5553-1.05834l.55531-.94116h20.0501 20.0501l.31853-.8599c.64528-1.74196.37649-1.64749 4.913327-1.72674 2.301576-.0402 4.292499.0347 4.424273.16649.135186.13519.157916 1.17587.05216 2.3882l-.187425 2.14862h-25.365835c-13.95121 0-25.36584-.0527-25.36584-.11717z"/><path d="m-41.98387-62.970625-1.332534-1.77149-20.523626-.0678-20.523629-.0678-.168521-1.78432c-.09269-.98138-.169366-2.11175-.1704-2.51193l-.0019-.7276h2.458865 2.458863l.409975 1.12447.409977 1.12448 18.563635.0679 18.563635.0679 2.365516 2.97478 2.365518 2.97477-.977681.18319c-2.225654.41703-2.463239.32031-3.897712-1.5867z"/><path d="m-140.65003-62.180705c.24233-.41023 1.27608-1.74968 2.29722-2.97656l1.85661-2.23068 18.5194-.13229 18.519405-.1323.464997-1.19062.464995-1.19063 3.075014-.0745 3.075011-.0745v2.52036 2.52037l-21.223222.0677-21.22321.0677-1.43212 1.78593-1.43212 1.78594h-1.70129-1.70129z"/><path d="m-50.176336-71.488985-1.852083-1.58055-16.565751-.003-16.56575-.003-.166847-1.389067c-.09177-.763984-.16788-1.835547-.169145-2.38125l-.0023-.992187h1.428998 1.429002l.489228 1.189633.48923 1.189633 15.685117.000979 15.685117.000979 2.712558 2.35159c3.896773 3.37822 3.824534 3.20533 1.337625 3.20118l-2.082916-.003z"/><path d="m-132.49866-71.370495c.7073-.65088 2.0302-1.836782 2.93976-2.635333l1.65375-1.451911h15.64212 15.642114l.600413-1.256771.600417-1.256771 1.559917-.0805c.857954-.04427 1.647671.01526 1.754931.132291.107257.117036.134136 1.195058.05973 2.395605l-.135279 2.182812h-16.981623-16.98162l-1.83594 1.578718-1.83595 1.57871-1.98438-.002-1.98437-.002z"/><path d="m-124.39196-77.955257c0-.21593 4.8794-3.141137 6.94257-4.162075l2.04777-1.013324h10.81472 10.814713l.457782-1.256771c.25178-.691224.625144-1.631952.829696-2.090507s.371914-.941814.371914-1.073909c0-.132096.148828-.444124.330729-.693397.270473-.370651.317874.09013.260163 2.529117-.03881 1.640288-.133504 3.369295-.210426 3.842238l-.139862.859896h-10.670959-10.67096l-3.1299 1.5875-3.1299 1.5875h-2.45903c-1.35246 0-2.45902-.05232-2.45902-.116268z"/><path d="m-60.891961-78.730275c-.800364-.464173-2.207196-1.167898-3.126293-1.563833l-1.671087-.719881h-10.264175-10.264174l-.189259-3.728431c-.104095-2.050638-.129485-3.788209-.05642-3.861269.07306-.07306.249899.26528.392973.751869.143076.486588.559001 1.718143.924279 2.736789l.664142 1.852083 10.861685.06907 10.861686.06907 2.586969 1.352358c2.621619 1.370472 6.423427 3.636457 6.423427 3.828545 0 .0577-1.279922.09425-2.844271.08124-2.696699-.02244-2.919772-.06745-4.299479-.867619z"/></g></g></svg>